 http://img138.imageshack.us/img138/3171/112ww.png


Source : CtrlHD

Format : AVI
Format/Info : Audio Video Interleave
File size : 704 MiB
Duration : 1h 54mn
Overall bit rate : 856 Kbps
Writing library : VirtualDub build 32842/release

Video
ID : 0
Format : MPEG-4 Visual
Format profile : Advanced Simple@L5
Format settings, BVOP : 4
Format settings, QPel : No
Format settings, GMC : No warppoints
Format settings, Matrix : Default (H.263)
Muxing mode : Packed bitstream
Codec ID : XVID
Codec ID/Hint : XviD
Duration : 1h 54mn
Bit rate : 718 Kbps
Width : 640 pixels
Height : 352 pixels
Display aspect ratio : 16:9
Frame rate : 23.976 fps
Color space : YUV
Chroma subsampling : 4:2:0
Bit depth : 8 bits
Scan type : Progressive
Compression mode : Lossy
Bits/(Pixel*Frame) : 0.133
Stream size : 591 MiB (84%)
Writing library : XviD 64

Audio
ID : 1
Format : MPEG Audio
Format version : Version 1
Format profile : Layer 3
Codec ID : 55
Codec ID/Hint : MP3
Duration : 1h 54mn
Bit rate mode : Constant
Bit rate : 128 Kbps
Channel(s) : 2 channels
Sampling rate : 44.1 KHz
Compression mode : Lossy
Stream size : 105 MiB (15%)
Alignment : Split accross interleaves
Interleave, duration : 42 ms (1.00 video frame)
Interleave, preload duration : 500 ms
Writing library : LAME3.99r
Encoding settings : -m s -V 4 -q 3 -lowpass 17 -b 128


Plot
When a woman tries to outwit her husband's sexy young mistress, the unexpected consequences include starring as King Lear in a very amateur production - with the mistress, an aspiring actress, playing The Fool.

 
http://www.shotpix.com/images/71608076212945571110.png 
http://www.shotpix.com/images/77551421830677271800.png 
http://www.shotpix.com/images/33678807038424486802.png